<svg xmlns="http://www.w3.org/2000/svg" version="1.1" xmlns:xlink="http://www.w3.org/1999/xlink" xmlns:svgjs="http://svgjs.dev/svgjs" width="1000" height="1411" viewBox="0 0 1000 1411"><g transform="matrix(1,0,0,1,-0.6079661555679081,0.5712665246918505)"><svg viewBox="0 0 175 247" data-background-color="#ffffff" preserveAspectRatio="xMidYMid meet" height="1411" width="1000" xmlns="http://www.w3.org/2000/svg" xmlns:xlink="http://www.w3.org/1999/xlink"><g id="tight-bounds" transform="matrix(1,0,0,1,0.10639432811251481,-0.10000200680289595)"><svg viewBox="0 0 174.78719819723688 247.2" height="247.2" width="174.78719819723688"><g><svg viewBox="0 0 395.52 559.3804638350547" height="247.2" width="174.78719819723688"><g transform="matrix(1,0,0,1,0,315.04493336101405)"><svg viewBox="0 0 395.52 244.33553047404064" height="244.33553047404064" width="395.52"><g id="textblocktransform"><svg viewBox="0 0 395.52 244.33553047404064" height="244.33553047404064" width="395.52" id="textblock"><g><svg viewBox="0 0 395.52 244.33553047404064" height="244.33553047404064" width="395.52"><g transform="matrix(1,0,0,1,0,0)"><svg width="395.52" viewBox="3.4000000953674316 -38.45000076293945 66.43999481201172 41.04999923706055" height="244.33553047404064" data-palette-color="#ee3e38"><path d="M5.2 0.3Q4.85 0.3 4.63 0 4.4-0.3 4.4-0.75L4.4-0.75 4.4-1.55 4.4-2.75Q4.4-5.9 4.15-9.85L4.15-9.85Q3.95-14.05 3.95-16.95L3.95-16.95Q3.95-19.65 3.7-27.4L3.7-27.4Q3.4-34.4 3.4-37.85L3.4-37.85Q3.4-38.1 3.63-38.27 3.85-38.45 4.15-38.45L4.15-38.45Q5.05-38.45 5.05-37.7L5.05-37.7Q5.05-28.45 5.2-23.85L5.2-23.85 5.45-14.9Q5.45-12.8 5.75-8.05L5.75-8.05 6.05-1.85Q6.05-1.7 6.2-1.7L6.2-1.7Q6.25-1.65 6.85-1.65L6.85-1.65 9.95-1.65Q10.6-1.65 10.6-0.75L10.6-0.75Q10.6-0.35 10.45-0.08 10.3 0.2 10 0.2L10 0.2 9.65 0.25 9.25 0.25Q8.2 0.3 5.2 0.3L5.2 0.3ZM21.2 0.75Q20.4 0.75 19.47 0.23 18.55-0.3 17.95-1L17.95-1Q17.25-1.9 16.85-6.05 16.45-10.2 16.35-15.55L16.35-15.55Q16.35-16.75 16.3-17.35L16.3-17.35Q16.2-29.9 15.9-32.2L15.9-32.2 16.2-32.9Q17.35-32.75 17.35-30.15L17.35-30.15 17.5-16.9Q17.5-15.5 17.75-11.6L17.75-11.6Q18.05-8.1 18.05-6.3L18.05-6.3Q18.05-0.6 21.8-0.6L21.8-0.6Q24.1-0.6 24.75-11.1L24.75-11.1 24.8-12.1Q25.15-25.85 25.15-32.45L25.15-32.45 25.1-32.9Q25.05-33.1 25.05-33.35L25.05-33.35Q25.05-33.9 25.9-33.9L25.9-33.9Q26.5-33.9 26.65-33.6L26.65-33.6Q26.75-33.1 26.75-31.85L26.75-31.85Q26.75-28.05 26.45-26.75L26.45-26.75 26.5-26.45Q26.5-25.8 26.35-24.45L26.35-24.45 26.25-22.45 26.25-21.95Q26.3-21.75 26.3-21.45L26.3-21.45Q26.2-20.25 26.2-19.15L26.2-19.15Q26.15-18.8 26.15-18.05L26.15-18.05Q26.05-13.3 25.95-9.8L25.95-9.8Q25.8-5.45 24.75-2.45L24.75-2.45Q23.65 0.75 21.2 0.75L21.2 0.75ZM54 2.6Q53 2.6 53-0.6L53-0.6 53-3.9Q53-11.1 52.7-15.15L52.7-15.15 52.55-17Q52.34-18.25 52.34-19.2L52.34-19.2Q52.34-20.9 52.45-22.3L52.45-22.3 52.55-25.4Q52.55-26.95 52.34-27.75L52.34-27.75Q51.34-27.05 46.3-6.7L46.3-6.7 46.25-5.95Q46.09-4.7 45.84-3.95L45.84-3.95Q45.7-3.4 45.42-3.1 45.14-2.8 44.8-2.8L44.8-2.8Q44-2.8 43.64-3.2 43.3-3.6 43.3-4.45L43.3-4.45Q43.3-5.8 42.02-11.45 40.75-17.1 39.27-22.3 37.8-27.5 37.24-28.05L37.24-28.05Q37.2-26.3 36.84-19.8L36.84-19.8Q36.14-8.3 36.14-1.7L36.14-1.7 36.2 0.3Q35.99 0.95 35.14 0.95L35.14 0.95Q34.99 0.95 34.64 0.68 34.3 0.4 34.3 0.25L34.3 0.25Q34.3-4.25 35.09-15.55L35.09-15.55Q35.84-26.05 35.84-31.3L35.84-31.3Q35.84-31.55 35.74-31.8L35.74-31.8Q35.59-32.1 35.59-32.25L35.59-32.25Q35.59-33 36.89-33L36.89-33Q37.74-33 37.89-32.25L37.89-32.25Q38.09-31.25 38.09-30.75L38.09-30.75 38.14-30.15Q38.39-28.85 39.59-26.15L39.59-26.15Q40.55-24 41.05-22.4L41.05-22.4Q41.34-21.2 41.59-20.45L41.59-20.45Q42.39-17.55 42.64-16.15L42.64-16.15 43.3-14.85Q43.45-14.1 43.89-12.4L43.89-12.4Q44.34-10.5 44.55-9.3 44.75-8.1 44.75-7L44.75-7Q45.3-7.85 47.87-17.23 50.45-26.6 50.89-29.2L50.89-29.2Q50.95-29.3 50.97-29.48 51-29.65 51.05-29.95L51.05-29.95Q51.14-30.6 51.5-31.9L51.5-31.9Q51.89-32.9 52.7-32.9L52.7-32.9Q53.05-32.9 53.5-32.6 53.95-32.3 53.95-32L53.95-32Q53.95-11.15 54.59-9.95L54.59-9.95 54.59-7.35Q54.55-6.2 54.55-4.7L54.55-4.7Q54.55-1.5 54.89 0.1L54.89 0.1Q54.95 0.15 54.97 0.25 55 0.35 55.05 0.5L55.05 0.5Q55.09 0.7 55.09 0.95L55.09 0.95Q55.09 1.5 54.77 2.05 54.45 2.6 54 2.6L54 2.6ZM52.34-27.95L52.34-28.05 52.3-28.05 52.2-28 52.34-27.95ZM63.54 0.65Q62.64 0.65 62.54-0.4L62.54-0.4 62.54-1.05Q62.59-1.3 62.59-1.65L62.59-1.65 62.39-1.85Q62.79-2.9 62.79-3.9L62.79-3.9Q62.79-5.05 62.64-7.2L62.64-7.2 62.54-10.5Q62.54-13 62.69-18L62.69-18Q62.89-22.45 62.89-25.55L62.89-25.55 62.79-28.55Q62.69-29.9 62.69-31.55L62.69-31.55Q62.69-32.3 63.04-32.63 63.39-32.95 64.14-32.95L64.14-32.95Q64.64-32.95 64.94-32.65L64.94-32.65Q65.04-32.6 66.39-32.45L66.39-32.45Q67.64-32.3 68.54-32L68.54-32Q69.49-31.7 69.49-31.25L69.49-31.25Q69.49-30.75 68.54-30.25L68.54-30.25Q65.69-31.2 64.49-31.2L64.49-31.2 64.24-30.9Q64.29-30.45 64.29-28.75L64.29-28.75Q64.29-26.6 64.19-24.9L64.19-24.9Q64.14-23.15 64.14-21L64.14-21Q64.14-19.6 64.84-19.6L64.84-19.6 65.64-19.65Q66.04-19.7 66.49-19.7L66.49-19.7Q68.44-19.7 68.44-18.8L68.44-18.8Q68.44-18.25 68.19-17.88 67.94-17.5 67.44-17.5L67.44-17.5Q66.69-17.5 66.29-17.9L66.29-17.9 64.69-18.15 64.44-18.15 64.19-17.9 64.19-17.75Q64.29-16.9 64.29-13.8L64.29-13.8Q64.29-11.85 64.24-10.25L64.24-10.25 64.19-6.7Q64.19-4.75 64.34-2.7L64.34-2.7Q64.39-1.55 64.84-1.18 65.29-0.8 66.49-0.8L66.49-0.8 67.39-0.85Q67.84-0.9 68.39-0.9L68.39-0.9Q69.84-0.9 69.84-0.25L69.84-0.25Q69.84 0.65 67.64 0.65L67.64 0.65 63.54 0.65Z" opacity="1" transform="matrix(1,0,0,1,0,0)" fill="#ee3e38" class="wordmark-text-0" data-fill-palette-color="primary" id="text-0"></path></svg></g></svg></g></svg></g></svg></g><g transform="matrix(1,0,0,1,97.9192880116826,0)"><svg viewBox="0 0 199.6814239766348 199.6814239766348" height="199.6814239766348" width="199.6814239766348"><g><svg></svg></g><g id="icon-0"><svg viewBox="0 0 199.6814239766348 199.6814239766348" height="199.6814239766348" width="199.6814239766348"><g><path d="M0 99.841c0-55.141 44.7-99.841 99.841-99.841 55.141 0 99.841 44.7 99.84 99.841 0 55.141-44.7 99.841-99.84 99.84-55.141 0-99.841-44.7-99.841-99.84zM99.841 177.647c42.971 0 77.806-34.835 77.806-77.806 0-42.971-34.835-77.806-77.806-77.807-42.971 0-77.806 34.835-77.807 77.807 0 42.971 34.835 77.806 77.807 77.806z" data-fill-palette-color="accent" fill="#8d021f" stroke="transparent"></path></g><g transform="matrix(1,0,0,1,67.43912712446064,72.1674886831001)"><svg viewBox="0 0 64.80316972771352 55.346446610434576" height="55.346446610434576" width="64.80316972771352"><g><svg version="1.0" xmlns="http://www.w3.org/2000/svg" xmlns:xlink="http://www.w3.org/1999/xlink" x="0" y="0" viewBox="0 0 100 85.4070053100586" enable-background="new 0 0 100 85.407" xml:space="preserve" width="64.80316972771352" height="55.346446610434576" class="icon-s-0" data-fill-palette-color="accent" id="s-0"><path d="M100 42.672c0 4.26-1.67 8.128-4.385 11.008-0.466 6.078-4.317 11.208-9.685 13.521v0.057c-6.555 3.817-10.474 10.333-11.667 18.149h-6.061V67.275c0.04-5.652 1.818-9.271 5.544-11.504 1.363-0.784 2.602-1.681 3.658-2.675 2.766 0.994 5.214 2.942 6.771 5.714 0.324 0.545 0.903 0.852 1.477 0.852 0.278 0 0.568-0.068 0.829-0.222 0.83-0.455 1.125-1.488 0.659-2.306h-0.011c-1.744-3.102-4.396-5.391-7.407-6.754 1.545-2.375 2.403-5.203 2.363-8.6 0-0.017 0.023-0.034 0.023-0.057 0-1.534-0.227-3.027-0.636-4.431 3.539-0.676 6.657-2.471 8.952-5 0.636-0.698 0.59-1.772-0.114-2.397-0.699-0.63-1.755-0.574-2.38 0.108-2 2.176-4.698 3.664-7.765 4.073-2.465-4.567-7.049-7.81-12.422-8.401 0.358-2.897 1.664-5.481 3.629-7.447 0.648-0.659 0.648-1.734 0-2.387-0.659-0.665-1.75-0.665-2.408 0-2.516 2.518-4.198 5.88-4.618 9.624-6.311-0.795-11.173-6.152-11.184-12.674 0-0.926-0.767-1.698-1.676-1.698-0.96 0-1.71 0.772-1.71 1.698 0 1.102 0.108 2.153 0.318 3.187-2.392 2.069-5.368 3.114-8.35 3.114-1.471 0-2.948-0.261-4.339-0.767 0 0-0.023-0.006-0.04-0.011-1.715-0.619-3.289-1.604-4.652-2.967-0.653-0.659-1.732-0.659-2.397 0-0.665 0.659-0.665 1.729 0 2.393 1.397 1.392 2.971 2.471 4.646 3.249-0.335 4.22-2.789 7.85-6.22 9.889-1.982-3.011-4.964-5.396-8.628-6.561-0.915-0.284-1.863 0.21-2.153 1.102-0.25 0.892 0.205 1.841 1.108 2.119 2.721 0.863 4.908 2.539 6.481 4.675-1.056 0.284-2.141 0.437-3.294 0.437 0 0 0 0-0.018 0H22.05c-4.351 0-8.35 1.733-11.258 4.568-0.688 0.653-0.704 1.727-0.028 2.392 0.323 0.341 0.767 0.511 1.227 0.511 0.387 0 0.812-0.159 1.142-0.477 2.307-2.25 5.453-3.607 8.918-3.607h0.182 0.005 0.018c8.156 0 14.933-6.074 15.995-13.946 1.159 0.25 2.317 0.386 3.493 0.386 3.312 0 6.652-1.028 9.463-3.062 1.028 2.346 2.653 4.396 4.624 5.987-2.011 2.477-3.192 5.419-3.504 8.429-0.847-0.136-1.738-0.21-2.63-0.21-2.556 0-5.152 0.607-7.566 1.898-0.829 0.438-1.142 1.465-0.704 2.295 0.307 0.562 0.903 0.892 1.511 0.892 0.278 0 0.528-0.062 0.772-0.205 1.943-1.017 3.977-1.5 5.987-1.5 0.897 0 1.783 0.097 2.63 0.278 0.369 3.431 1.852 6.788 4.402 9.458 0.341 0.353 0.778 0.523 1.216 0.523 0.415 0 0.846-0.154 1.182-0.466 0.693-0.653 0.71-1.716 0.051-2.392h-0.011c-2.267-2.397-3.465-5.441-3.544-8.52 0-0.046 0.011-0.08 0-0.131 0-0.062 0-0.125 0-0.188 0-2.989 1.034-5.943 3.079-8.317 2.153 1.074 4.606 1.699 7.203 1.699 0 0 0.011 0.005 0.028 0.005 0 0 0.011 0 0.028 0 7.032 0.023 12.724 5.705 12.752 12.736-1.334-0.352-2.709-0.534-4.118-0.534-2.016 0-4.061 0.369-6.032 1.182-0.875 0.358-1.29 1.34-0.937 2.204 0.357 0.863 1.329 1.284 2.198 0.932 1.579-0.63 3.187-0.937 4.771-0.937 1.278 0 2.545 0.193 3.732 0.562-0.415 1.897-1.227 3.419-2.488 4.771-0.097 0.085-0.188 0.182-0.261 0.295-0.966 0.949-2.125 1.823-3.556 2.692-4.902 2.863-7.254 8.055-7.203 14.418v18.132h-5.783V68.161c0-6.333-3.97-12.339-8.969-14.475-2.386-0.926-4.874-2.477-6.686-4.505-2.584 1.755-5.686 2.789-9.021 2.789-3.346 0-6.447-1.017-9.014-2.76-2.556 1.681-5.641 2.664-8.94 2.664C7.333 51.875 0 44.524 0 35.464c0-6.772 4.095-12.583 9.958-15.083 1.585-7.227 7.986-12.634 15.688-12.634 0.409 0 0.784 0.034 1.165 0.057 2.903-4.243 7.782-7.027 13.309-7.027 2.738 0 5.306 0.682 7.561 1.897C50.225 0.982 53.269 0 56.546 0c4.209 0 8.043 1.642 10.917 4.306 1.204-0.29 2.448-0.46 3.749-0.46 6.504 0 12.127 3.914 14.638 9.52 6.601 2 11.406 8.124 11.406 15.372 0 1.454-0.193 2.857-0.551 4.192C98.762 35.635 100 39.009 100 42.672z" fill="#8d021f" data-fill-palette-color="accent"></path></svg></g></svg></g></svg></g></svg></g><g></g></svg></g><defs></defs></svg><rect width="174.78719819723688" height="247.2" fill="none" stroke="none" visibility="hidden"></rect></g></svg></g></svg>